<svg xmlns="http://www.w3.org/2000/svg" viewBox="0 0 100 122" class="mark"
     role="img" aria-label="Discovery Homeowners Association">
  <!--
    GENERATED by tools/render-dhoa-mark.py — edit that, not this file.

    The association's emblem, redrawn from measurements of the only surviving
    copy (a fax-quality letterhead scan) rather than traced from it. A ring sun
    at the crest of a stippled ridge, a nearer hill crossing behind, and an
    orchard tree of fourteen fruit in four staggered columns — apt for a
    neighborhood laid out over a farm in 1972.

    Drawn with currentColor so it inherits its surroundings and works in both
    light and dark themes.
  -->
  <defs>
    <clipPath id="mark-interior">
      <rect x="5.2" y="5.2" width="89.6" height="111.6" rx="4"/>
    </clipPath>
  </defs>

  <g clip-path="url(#mark-interior)">
    <!-- Ploughed-field stipple between the two ridges. -->
    <g class="mark__texture" fill="currentColor">
      <circle cx="3.1" cy="50.5" r="0.7"/><circle cx="2.9" cy="53.1" r="0.7"/><circle cx="6.3" cy="50.0" r="0.7"/><circle cx="6.1" cy="48.2" r="0.7"/><circle cx="9.8" cy="49.8" r="0.7"/><circle cx="8.8" cy="46.8" r="0.7"/>
      <circle cx="13.0" cy="45.8" r="0.7"/><circle cx="11.3" cy="49.3" r="0.7"/><circle cx="16.4" cy="49.7" r="0.7"/><circle cx="15.7" cy="47.9" r="0.7"/><circle cx="17.4" cy="44.1" r="0.7"/><circle cx="17.5" cy="46.0" r="0.7"/>
      <circle cx="21.0" cy="43.2" r="0.7"/><circle cx="21.5" cy="42.4" r="0.7"/><circle cx="25.5" cy="43.4" r="0.7"/><circle cx="25.0" cy="43.8" r="0.7"/><circle cx="28.2" cy="42.8" r="0.7"/><circle cx="27.3" cy="42.6" r="0.7"/>
      <circle cx="32.0" cy="44.3" r="0.7"/><circle cx="31.4" cy="43.5" r="0.7"/><circle cx="33.4" cy="40.0" r="0.7"/><circle cx="33.1" cy="39.8" r="0.7"/><circle cx="36.9" cy="41.6" r="0.7"/><circle cx="36.9" cy="42.1" r="0.7"/>
      <circle cx="41.0" cy="42.3" r="0.7"/><circle cx="39.6" cy="36.1" r="0.7"/><circle cx="43.2" cy="41.6" r="0.7"/><circle cx="43.1" cy="42.1" r="0.7"/><circle cx="43.6" cy="35.5" r="0.7"/><circle cx="45.9" cy="40.3" r="0.7"/>
      <circle cx="46.0" cy="34.6" r="0.7"/><circle cx="47.0" cy="41.8" r="0.7"/><circle cx="48.9" cy="34.6" r="0.7"/><circle cx="48.5" cy="34.5" r="0.7"/><circle cx="48.8" cy="41.0" r="0.7"/><circle cx="49.4" cy="38.8" r="0.7"/>
      <circle cx="53.1" cy="35.2" r="0.7"/><circle cx="52.9" cy="34.6" r="0.7"/><circle cx="55.5" cy="34.6" r="0.7"/><circle cx="55.2" cy="35.7" r="0.7"/><circle cx="59.5" cy="44.9" r="0.7"/><circle cx="59.6" cy="37.7" r="0.7"/>
      <circle cx="61.7" cy="37.7" r="0.7"/><circle cx="62.2" cy="43.8" r="0.7"/><circle cx="66.1" cy="37.6" r="0.7"/><circle cx="64.5" cy="38.6" r="0.7"/><circle cx="67.7" cy="43.6" r="0.7"/><circle cx="70.3" cy="40.7" r="0.7"/>
      <circle cx="74.5" cy="40.3" r="0.7"/><circle cx="77.6" cy="42.0" r="0.7"/><circle cx="80.4" cy="43.3" r="0.7"/>
    </g>

    <!-- The far ridge, and the nearer hill behind the tree. -->
    <path class="mark__ridge" fill="none" stroke="currentColor" stroke-width="2.1"
          stroke-linecap="round" stroke-linejoin="round"
          d="M0.0 46.5 C1.8 46.0, 7.3 44.5, 11.1 43.3 C14.9 42.1, 18.9 40.7, 22.9 39.4 C26.8 38.1, 30.8 37.0, 34.8 35.7 C38.8 34.4, 43.2 32.2, 46.6 31.4 C50.0 30.5, 52.0 30.1, 55.0 30.6 C58.0 31.1, 60.9 33.0, 64.4 34.2 C68.0 35.4, 72.3 36.8, 76.3 38.0 C80.2 39.2, 84.1 40.3, 88.1 41.7 C92.0 43.1, 98.0 45.8, 100.0 46.6"/>
    <path class="mark__hill" fill="none" stroke="currentColor" stroke-width="1.6"
          stroke-linecap="round" stroke-linejoin="round"
          d="M0.0 56.0 C1.8 55.5, 7.3 54.5, 11.1 53.3 C14.9 52.0, 18.9 49.9, 22.9 48.5 C26.8 47.1, 30.9 45.8, 34.8 45.0 C38.6 44.2, 42.0 43.5, 46.0 43.8 C50.0 44.1, 54.4 46.5, 58.5 47.0 C62.6 47.5, 66.5 47.0, 70.4 47.1 C74.4 47.2, 78.2 47.2, 82.2 47.9 C86.2 48.5, 91.1 50.2, 94.1 51.0 C97.1 51.8, 99.0 52.2, 100.0 52.4"/>
    <path class="mark__hill" fill="none" stroke="currentColor" stroke-width="1.6"
          stroke-linecap="round" stroke-linejoin="round"
          d="M0.0 61.5 C1.8 61.0, 7.3 59.7, 11.1 58.2 C14.9 56.7, 18.9 54.4, 22.9 52.5 C26.8 50.6, 31.3 48.0, 34.8 46.8 C38.3 45.6, 40.0 44.9, 44.0 45.4 C48.0 45.9, 54.1 48.0, 58.5 49.5 C62.9 51.0, 66.5 52.6, 70.4 54.3 C74.4 56.0, 78.2 58.0, 82.2 59.8 C86.2 61.6, 91.1 63.6, 94.1 64.9 C97.1 66.2, 99.0 67.1, 100.0 67.5"/>

    <!-- Sun: a ring sitting at the crest. -->
    <circle class="mark__sun" cx="51.6" cy="26.0" r="6.9"
            fill="none" stroke="currentColor" stroke-width="1.9"/>

    <!-- Tree: trunk to the ground, with two short stubs. -->
    <path class="mark__trunk" fill="none" stroke="currentColor" stroke-width="2.3"
          stroke-linecap="round"
          d="M53.0 118 C 52.4 100, 53.2 84, 52.5 68 C 52.2 61, 53.0 56, 53.7 51.5"/>
    <path class="mark__trunk" fill="none" stroke="currentColor" stroke-width="1.5"
          stroke-linecap="round"
          d="M52.6 76 L 48.0 71.8 M52.5 66 L 57.2 62.6"/>

    <!-- Fourteen fruit. -->
    <g class="mark__fruit" fill="currentColor">
      <circle cx="44.6" cy="56.5" r="4.95"/>
      <circle cx="60.0" cy="63.2" r="4.95"/>
      <circle cx="33.6" cy="65.4" r="4.95"/>
      <circle cx="44.6" cy="70.1" r="4.95"/>
      <circle cx="72.9" cy="70.4" r="4.95"/>
      <circle cx="60.8" cy="75.4" r="4.95"/>
      <circle cx="33.3" cy="79.4" r="4.95"/>
      <circle cx="72.8" cy="81.2" r="4.95"/>
      <circle cx="44.5" cy="83.5" r="4.95"/>
      <circle cx="61.4" cy="88.6" r="4.95"/>
      <circle cx="33.4" cy="91.7" r="4.95"/>
      <circle cx="73.3" cy="92.9" r="4.95"/>
      <circle cx="44.5" cy="95.3" r="4.95"/>
      <circle cx="61.5" cy="99.9" r="4.95"/>
    </g>
  </g>

  <!-- Frame last, so it sits cleanly over anything reaching the edge. -->
  <rect class="mark__frame" x="2.6" y="2.6" width="94.8" height="116.8" rx="5.5"
        fill="none" stroke="currentColor" stroke-width="5.2"/>
</svg>
